<svg id="Layer_1" data-name="Layer 1" xmlns="http://www.w3.org/2000/svg" viewBox="0 0 64 57.65"><title>Artboard 1</title><path d="M44.8,42.3c-1.8-3.3-3.9-6.5-6.9-8.6-.3-.2-.5-.3-.8-.5-4.3-2.3-10-.2-12.3,2.1-1.6,1.6-5.4,5.9-6.7,11-.1.5-1.1,4.8,1.3,6.8a4.37,4.37,0,0,0,2.9.9,12.73,12.73,0,0,0,5.1-1.3c3.4-1.5,6.3-1.9,8.7-1.1a13.82,13.82,0,0,1,2.2,1A10.66,10.66,0,0,0,41,53.8,6.53,6.53,0,0,0,46.6,52c2.3-2.5.1-6.3-1.3-8.8A4.05,4.05,0,0,1,44.8,42.3Z"/><path d="M21.9,25.3a5.56,5.56,0,0,0,3.8,1.9,1.7,1.7,0,0,0,.7-.1c1.6-.3,2.8-1.5,3.6-3.4a11.9,11.9,0,0,0,.5-6.3,11.67,11.67,0,0,0-2.7-5.7,4.87,4.87,0,0,0-4.5-1.8c-1.6.3-2.8,1.5-3.6,3.4a11.9,11.9,0,0,0-.5,6.3A11.26,11.26,0,0,0,21.9,25.3Z"/><path d="M37.5,26.5c.2,0,.4.1.7.1a5.4,5.4,0,0,0,3.9-1.9,11.28,11.28,0,0,0,2.6-5.5,10,10,0,0,0-.8-6A5.13,5.13,0,0,0,40,10a5.2,5.2,0,0,0-4.6,1.9,11.28,11.28,0,0,0-2.6,5.5,10,10,0,0,0,.8,6A5.2,5.2,0,0,0,37.5,26.5Z"/><path d="M54.3,27.6A5.12,5.12,0,0,0,52,23.4a4.84,4.84,0,0,0-4.8.1A9.75,9.75,0,0,0,43,27.6a9.48,9.48,0,0,0-1.4,5.7,5.12,5.12,0,0,0,2.3,4.2,4.28,4.28,0,0,0,2.2.6,6.51,6.51,0,0,0,2.6-.6,9.75,9.75,0,0,0,4.2-4.1A9.61,9.61,0,0,0,54.3,27.6Z"/><path d="M22,34.9a10,10,0,0,0-.9-5.8,10.77,10.77,0,0,0-3.9-4.5,5,5,0,0,0-4.8-.5,5.19,5.19,0,0,0-2.7,4,10,10,0,0,0,.9,5.8,10.77,10.77,0,0,0,3.9,4.5,5.79,5.79,0,0,0,3,.9,3.92,3.92,0,0,0,1.8-.4A5.19,5.19,0,0,0,22,34.9Z"/></svg>
